<svg xmlns="http://www.w3.org/2000/svg" viewBox="169.198 3.628 25.525 34.987"><g clip-path="url(#clip3)"><path fill="#00832D" d="M177.972 29.868h-8.774v6.361a2.396 2.396 0 0 0 2.393 2.386h6.381v-8.747Z"/><path fill="#FFBA00" d="M177.972 3.628h-6.381a2.396 2.396 0 0 0-2.393 2.385v23.855h8.774V12.375h7.977V3.628h-7.977Z"/><path fill="#0066DA" d="M194.723 29.868h-8.774v8.747h6.381a2.396 2.396 0 0 0 2.393-2.386v-6.36Z"/><path fill="#00AC47" d="M185.949 29.868h-7.977v8.747h7.977v-8.747Z"/><path fill="#2684FC" d="M185.949 12.375v17.493h8.774V12.375h-8.774Z"/><path fill="#EA4335" d="M185.949 3.628v8.747h8.774l-8.774-8.747Z"/></g></svg>