<svg xmlns="http://www.w3.org/2000/svg" viewBox="214.34 5.74 35.987 29.52"><g clip-path="url(#clip4)"><path fill="#00832D" d="m234.698 20.5 3.496 4.018 4.73 2.993.822-6.97-.822-6.806-4.812 2.624-3.414 4.141Z"/><path fill="#0066DA" d="M214.34 26.855V32.8a2.47 2.47 0 0 0 2.468 2.46h5.963l1.234-4.51-1.234-3.895-4.113-1.23-4.318 1.23Z"/><path fill="#E94235" d="m222.771 5.74-8.431 8.405 4.318 1.23 4.113-1.23 1.234-3.854-1.234-4.55Z"/><path fill="#2684FC" d="M222.771 14.146h-8.431v12.71h8.431v-12.71Z"/><path fill="#00AC47" d="m248.312 9.307-5.388 4.387V27.51l5.429 4.428a1.228 1.228 0 0 0 1.974-.984V10.25c0-1.025-1.193-1.6-2.015-.943ZM234.698 20.5v6.355h-11.927v8.405h17.685a2.472 2.472 0 0 0 2.468-2.46v-5.289l-8.226-7.011Z"/><path fill="#FFBA00" d="M240.456 5.74h-17.685v8.405h11.927V20.5l8.226-6.806V8.2a2.472 2.472 0 0 0-2.468-2.46Z"/></g></svg>