<svg xmlns="http://www.w3.org/2000/svg" viewBox="112.143 4.51 35.904 31.98"><g clip-path="url(#clip2)"><path fill="#0066DA" d="m114.857 31.898 1.563 2.747c.329.574.822 1.025 1.357 1.353l5.676-9.758h-11.31c0 .656.164 1.271.493 1.845l2.221 3.813Z"/><path fill="#00AC47" d="m130.074 14.76-5.634-9.758a3.577 3.577 0 0 0-1.357 1.353l-10.447 18.04a3.65 3.65 0 0 0-.493 1.845h11.31l6.621-11.48Z"/><path fill="#00832D" d="m130.074 14.76 5.676-9.758a3.68 3.68 0 0 0-1.851-.492h-7.609c-.658 0-1.275.205-1.851.492l5.635 9.758Z"/><path fill="#2684FC" d="M136.736 26.24h-13.284l-5.635 9.758a3.68 3.68 0 0 0 1.851.492h20.852a3.68 3.68 0 0 0 1.851-.492l-5.635-9.758Z"/><path fill="#EA4335" d="M142.371 35.998a3.577 3.577 0 0 0 1.357-1.353l.659-1.148 3.166-5.412a3.65 3.65 0 0 0 .494-1.845h-11.269l5.593 9.758Z"/><path fill="#FFBA00" d="m142.331 15.375-5.223-9.02a3.58 3.58 0 0 0-1.358-1.353l-5.675 9.758 6.621 11.48h11.311a3.65 3.65 0 0 0-.494-1.845l-5.182-9.02Z"/></g></svg>