<svg xmlns="http://www.w3.org/2000/svg" viewBox="62.116 6.013 30.31 30.216"><g clip-path="url(#clip1)"><path fill="#fff" d="M85.247 13.169H69.294v15.903h15.953V13.169Z"/><path fill="#4285F4" d="M72.565 25.494c-.598-.398-.997-.994-1.236-1.75l1.396-.556c.12.477.358.835.638 1.113.319.279.678.398 1.116.398.439 0 .838-.12 1.157-.398.319-.278.478-.636.478-1.033 0-.438-.16-.796-.518-1.074-.359-.278-.758-.397-1.276-.397h-.798v-1.352h.718c.439 0 .798-.12 1.117-.358.319-.239.438-.557.438-.994 0-.358-.12-.676-.398-.875-.28-.238-.599-.318-1.037-.318-.4 0-.718.12-.957.318-.24.2-.4.477-.519.796l-1.356-.557c.2-.517.518-.954.997-1.352.479-.397 1.117-.596 1.874-.596.559 0 1.077.12 1.516.318a2.32 2.32 0 0 1 1.037.914c.24.398.399.795.399 1.273 0 .477-.12.914-.36 1.232a2.391 2.391 0 0 1-.877.795v.08c.44.199.838.477 1.117.874.28.398.439.835.439 1.392 0 .556-.12 1.034-.399 1.431-.28.438-.638.755-1.157.994-.478.239-1.037.358-1.635.358-.678-.08-1.316-.278-1.914-.676Zm8.494-6.838-1.516 1.113-.757-1.153 2.712-1.948h1.036v9.224H81.06v-7.236Z"/><path fill="#34A853" d="M85.247 29.072H69.294v7.157h15.953v-7.157Z"/><path fill="#4285F4" d="M85.247 6.013H64.51a2.396 2.396 0 0 0-2.393 2.385v20.674h7.178V13.17h15.953V6.013Z"/><path fill="#188038" d="M62.116 29.072v4.771a2.396 2.396 0 0 0 2.393 2.386h4.785v-7.157h-7.178Z"/><path fill="#FBBC04" d="M92.426 13.169h-7.179v15.903h7.179V13.169Z"/><path fill="#1967D2" d="M92.426 13.17V8.397a2.396 2.396 0 0 0-2.393-2.385h-4.786v7.156h7.179Z"/><path fill="#EA4335" d="m85.247 36.229 7.179-7.157h-7.179v7.157Z"/></g></svg>